<svg width="29" height="29" viewBox="0 0 29 29" fill="none" xmlns="http://www.w3.org/2000/svg">
<path d="M10.738 25.7778C11.7391 25.7778 12.5505 24.9663 12.5505 23.9653C12.5505 22.9643 11.7391 22.1528 10.738 22.1528C9.73702 22.1528 8.92554 22.9643 8.92554 23.9653C8.92554 24.9663 9.73702 25.7778 10.738 25.7778Z" fill="#272727"/>
<path d="M21.75 25.7778C22.751 25.7778 23.5625 24.9663 23.5625 23.9653C23.5625 22.9643 22.751 22.1528 21.75 22.1528C20.749 22.1528 19.9375 22.9643 19.9375 23.9653C19.9375 24.9663 20.749 25.7778 21.75 25.7778Z" fill="#272727"/>
<path d="M26.6478 4.32583C26.5728 4.23343 26.4783 4.15877 26.371 4.10724C26.2638 4.0557 26.1465 4.02857 26.0275 4.02778H9.25581L9.77942 5.63889H24.9722L22.8214 15.3056H10.738L7.05664 3.64917C7.01682 3.52548 6.94767 3.41326 6.8551 3.32209C6.76252 3.23091 6.64926 3.16348 6.52498 3.12556L3.2222 2.11056C3.12064 2.07935 3.01394 2.06845 2.90817 2.07848C2.8024 2.08851 2.69964 2.11928 2.60577 2.16902C2.41617 2.26949 2.27425 2.44115 2.21123 2.64625C2.1482 2.85135 2.16923 3.07309 2.2697 3.26268C2.37016 3.45228 2.54182 3.5942 2.74692 3.65722L5.63887 4.54333L9.33637 16.2239L8.01525 17.3033L7.91053 17.4081C7.58375 17.7846 7.39852 18.2634 7.38676 18.7619C7.375 19.2603 7.53743 19.7473 7.84609 20.1389C8.06565 20.4059 8.34465 20.6178 8.66078 20.7577C8.9769 20.8976 9.32138 20.9615 9.66664 20.9444H23.1114C23.325 20.9444 23.5299 20.8596 23.681 20.7085C23.8321 20.5574 23.9169 20.3525 23.9169 20.1389C23.9169 19.9252 23.8321 19.7203 23.681 19.5693C23.5299 19.4182 23.325 19.3333 23.1114 19.3333H9.53776C9.44499 19.3302 9.35461 19.3031 9.27535 19.2548C9.19609 19.2065 9.13062 19.1386 9.08527 19.0576C9.03992 18.9767 9.01622 18.8853 9.01646 18.7925C9.0167 18.6997 9.04087 18.6085 9.08664 18.5278L11.028 16.9167H23.4658C23.652 16.9212 23.8341 16.8611 23.9809 16.7465C24.1278 16.632 24.2304 16.4701 24.2714 16.2883L26.825 5.01056C26.8495 4.89046 26.8462 4.76636 26.8155 4.6477C26.7848 4.52905 26.7274 4.41896 26.6478 4.32583Z" fill="#272727"/>
</svg>
