<svg width="29" height="29" viewBox="0 0 29 29" fill="none" xmlns="http://www.w3.org/2000/svg">
<path d="M26.9699 8.66371C26.8237 8.09131 26.598 7.54222 26.2993 7.03246C26.0125 6.50218 25.6457 6.01923 25.2118 5.60059C24.5828 4.97371 23.838 4.47508 23.0187 4.13246C21.3696 3.45566 19.5203 3.45566 17.8712 4.13246C17.0968 4.46023 16.3854 4.92022 15.7687 5.49184L15.6781 5.60059L14.4999 6.77871L13.3218 5.60059L13.2312 5.49184C12.6145 4.92022 11.903 4.46023 11.1287 4.13246C9.47959 3.45566 7.63028 3.45566 5.98119 4.13246C5.16191 4.47508 4.41705 4.97371 3.78806 5.60059C2.92778 6.43766 2.3188 7.49867 2.02994 8.66371C1.87626 9.25535 1.80311 9.86502 1.81244 10.4762C1.81244 11.0508 1.88494 11.6235 2.02994 12.18C2.18189 12.7419 2.40096 13.2835 2.68244 13.7931C2.98642 14.3169 3.35817 14.7984 3.78806 15.225L14.4999 25.9368L25.2118 15.225C25.6414 14.8027 26.0093 14.3187 26.2993 13.7931C26.888 12.7873 27.1948 11.6416 27.1874 10.4762C27.1968 9.86501 27.1237 9.25534 26.9699 8.66371ZM25.1574 11.6181C24.9403 12.4463 24.509 13.2027 23.9068 13.8112L14.4637 23.2362L5.02056 13.8112C4.71284 13.5013 4.44494 13.1543 4.22306 12.7781C4.01427 12.4059 3.85002 12.0105 3.73369 11.6C3.64082 11.1895 3.5922 10.7702 3.58869 10.3493C3.59115 9.91645 3.63975 9.48505 3.73369 9.06246C3.84661 8.65073 4.01103 8.2549 4.22306 7.88434C4.44056 7.50371 4.70881 7.15934 5.02056 6.85121C5.48619 6.39182 6.0332 6.02305 6.63369 5.76371C7.84374 5.27964 9.19364 5.27964 10.4037 5.76371C11.0018 6.01203 11.5419 6.37634 11.9987 6.83309L14.4637 9.31621L16.9287 6.83309C17.3851 6.37553 17.9271 6.01218 18.5237 5.76371C19.7337 5.27964 21.0836 5.27964 22.2937 5.76371C22.8936 6.0229 23.441 6.39265 23.9068 6.85121C24.2222 7.15028 24.4868 7.49828 24.6862 7.88434C25.106 8.62468 25.3247 9.46201 25.3206 10.3131C25.3452 10.751 25.3086 11.1903 25.2118 11.6181H25.1574Z" fill="black"/>
</svg>
